<svg width="100" height="30" viewBox="0 0 100 30" fill="none" xmlns="http://www.w3.org/2000/svg">
<path d="M44.2235 1.69117C42.4019 3.69251 41.8056 4.3215 39.4285 6.82114C38.4401 7.8504 37.3781 8.99402 37.0677 9.35345C36.7573 9.71287 36.4224 10.0968 36.3244 10.2112C36.2263 10.3255 35.7934 10.6523 35.3686 10.9463C34.5272 11.5263 33.498 12.4494 33.5878 12.5393C33.7267 12.6781 34.2822 12.4494 34.9847 11.9674C37.1902 10.4399 37.7049 10.0968 38.7178 9.51682C43.4475 6.78029 45.3917 5.69385 48.8062 3.86405C49.3535 3.56998 49.5495 3.42294 49.5659 3.29224C49.5904 3.09619 49.1575 2.38551 48.9696 2.32016C48.8062 2.25481 48.5611 2.40185 45.7184 4.26432C43.3331 5.82455 38.9384 8.61826 38.6361 8.77347C38.5708 8.80614 38.775 8.58558 39.1017 8.27517C41.5687 5.93074 45.0486 2.65508 45.8246 1.9444C46.3392 1.47878 46.7803 1.02133 46.7885 0.947814C46.8049 0.866127 46.7477 0.727258 46.666 0.637402C46.4944 0.441353 45.9063 0.000240734 45.8246 0.000240734C45.7919 0.000240734 45.0649 0.759933 44.2235 1.69117Z" fill="#EA1D2C"/>
<path d="M1.10898 2.43455C1.02729 2.56525 0.880254 6.56793 0.937435 7.02538C1.01912 7.66254 1.17433 7.98929 1.61544 8.43857L1.99937 8.83067L2.05655 10.7258C2.08106 11.7714 2.10556 13.2745 2.11373 14.0668L2.1219 15.5045L2.3588 15.5617C2.49766 15.5862 2.68554 15.5699 2.78357 15.5209L2.96328 15.4228L2.9061 12.2615C2.85709 9.95795 2.87343 9.04306 2.93878 8.86334C2.98779 8.73264 3.15933 8.51209 3.32271 8.38139C3.78016 7.99746 3.91902 7.61353 3.91902 6.63328C3.91902 5.64486 3.77199 3.10438 3.68213 2.69595C3.62495 2.3937 3.37989 2.263 3.25736 2.46722C3.21651 2.5244 3.18384 3.11255 3.18384 3.76605C3.18384 4.41955 3.15933 5.18741 3.13483 5.46515C3.08581 5.9226 3.06131 5.97161 2.9061 5.9471C2.74273 5.9226 2.73456 5.86542 2.68554 4.3542C2.62019 2.51623 2.59569 2.34469 2.34246 2.38554C2.16275 2.41004 2.16275 2.43455 2.11373 4.16632C2.08923 5.13023 2.06472 5.93077 2.05655 5.93894C2.04838 5.95527 1.9912 5.96344 1.92585 5.96344C1.77065 5.96344 1.73797 5.75922 1.62361 4.00295C1.5746 3.16973 1.51742 2.46722 1.49291 2.42638C1.4439 2.34469 1.15799 2.35286 1.10898 2.43455Z" fill="#EA1D2C"/>
<path d="M39.6327 10.2194C38.4401 10.3746 37.3781 10.8402 36.6348 11.5345C35.7852 12.3187 35.4258 13.2173 35.4176 14.5406C35.4095 16.4603 36.4142 17.8408 38.2685 18.4289C38.8403 18.6168 39.1426 18.6495 40.7191 18.7148C42.7695 18.8047 43.2188 18.8946 43.7007 19.3275C44.0928 19.6869 44.2154 20.0464 44.1745 20.7162C44.0928 22.0232 42.8839 22.7012 40.8008 22.6032C39.2161 22.5296 38.1297 22.0885 37.0841 21.1083C36.7818 20.8224 36.4551 20.5855 36.3652 20.5855C36.1528 20.5855 35.9649 20.757 35.5157 21.3615C34.8295 22.2764 34.8295 22.3336 35.4912 22.9381C36.3815 23.755 37.4762 24.3349 38.7668 24.678C39.2488 24.8087 39.7552 24.8577 40.7682 24.8904C42.4101 24.9476 43.1616 24.8251 44.1745 24.3349C45.8164 23.5426 46.6578 22.0559 46.5271 20.177C46.4128 18.4616 45.5305 17.2526 43.9785 16.6645C43.3413 16.4276 42.6551 16.3459 40.8008 16.2642C38.9629 16.1907 38.5299 16.0763 38.0643 15.5535C37.7621 15.2105 37.7049 14.9981 37.7539 14.3772C37.8438 13.1356 38.9874 12.4658 41.0051 12.4739C42.4182 12.4821 43.3005 12.7598 44.3461 13.5522C44.5911 13.7401 44.8607 13.8871 44.9424 13.8871C45.1548 13.8871 45.3835 13.6176 45.8491 12.8415C46.1759 12.3024 46.233 12.1553 46.1595 12.0246C45.9635 11.6571 44.6646 10.8892 43.6599 10.5379C42.6388 10.1867 40.9397 10.0478 39.6327 10.2194Z" fill="#EA1D2C"/>
<path d="M19.1128 10.3337C18.7371 10.4072 18.2551 10.5706 17.8712 10.7667C17.2422 11.0852 17.234 11.0934 17.234 10.9055C17.234 10.5134 17.0625 10.4563 15.9679 10.4563C15.0448 10.4563 14.9468 10.4726 14.8651 10.6196C14.7262 10.8729 14.7916 24.3023 14.9304 24.4411C15.0938 24.6045 16.8991 24.6372 17.1115 24.4738C17.2748 24.3594 17.2748 24.2369 17.3157 19.5072C17.3565 14.6713 17.3565 14.6632 17.5444 14.2547C17.9774 13.3153 18.4185 12.915 19.3007 12.6945C19.9134 12.5311 20.8609 12.5801 21.3837 12.7843C21.5798 12.866 21.882 13.0948 22.0862 13.3235C22.7479 14.0587 22.7234 13.879 22.8051 19.401C22.8704 24.2206 22.8786 24.3023 23.042 24.4411C23.1808 24.5637 23.3769 24.5882 24.0957 24.5882C25.4599 24.5882 25.3129 25.1682 25.3456 19.6052C25.3701 15.0226 25.3701 14.8919 25.5498 14.3773C25.8847 13.3725 26.3421 12.9396 27.3061 12.6945C28.2618 12.4413 29.4299 12.67 30.0017 13.2173C30.3285 13.5277 30.5981 14.0178 30.6961 14.4998C30.7533 14.7448 30.8104 16.787 30.8431 19.5807C30.884 23.1995 30.9248 24.2941 30.9983 24.4003C31.0964 24.531 31.2434 24.5473 32.0929 24.5473C32.7873 24.5473 33.1059 24.5147 33.1794 24.4411C33.2611 24.3594 33.2856 23.3792 33.2856 19.5807C33.2856 14.9 33.2856 14.8184 33.0977 14.0913C32.5831 12.0737 31.4803 10.8892 29.6505 10.3991C28.9316 10.203 27.3632 10.203 26.6281 10.3991C25.852 10.6033 25.1087 10.9954 24.643 11.4447C24.4143 11.6652 24.2264 11.8449 24.2183 11.8449C24.2183 11.8449 24.0141 11.6571 23.7772 11.4365C22.6989 10.4236 20.9344 10.007 19.1128 10.3337Z" fill="#EA1D2C"/>
<path d="M6.31245 10.5788C6.1409 10.6523 5.84683 10.9627 5.4629 11.4855C4.87475 12.2779 4.23759 13.25 4.27026 13.2908C4.2866 13.299 4.548 13.2091 4.85841 13.0948C5.6181 12.817 6.90059 12.7435 7.67662 12.9396C8.52617 13.1519 9.21235 13.5359 9.77599 14.0995C10.503 14.8184 10.9605 15.8558 10.7154 16.2234C10.5439 16.493 10.307 16.5011 5.29135 16.5011C2.28526 16.5011 0.234905 16.5338 0.161386 16.5828C0.00618029 16.6808 -0.0673383 18.4371 0.0796989 18.6985C0.169555 18.8701 0.169555 18.8701 5.56909 18.8701H10.9605L11.8345 18.5025C12.3083 18.2982 12.8638 18.045 13.068 17.947L13.4356 17.7673L13.4192 16.9912C13.3457 13.6012 10.9605 11.0199 7.48874 10.5461C6.68821 10.4318 6.63103 10.4399 6.31245 10.5788Z" fill="#EA1D2C"/>
<path d="M0.324768 19.8748C0.324768 20.1444 0.749542 21.1246 1.11714 21.7209C2.1464 23.371 3.87817 24.5473 5.75698 24.8741C6.96595 25.0864 7.97888 25.0048 9.16334 24.6127C10.6092 24.1389 12.4799 22.693 12.2838 22.1947C12.2348 22.0558 10.8216 20.9122 10.6991 20.9122C10.6501 20.9122 10.4377 21.0756 10.2171 21.2798C9.30221 22.1375 8.19943 22.5786 6.98229 22.5786C5.3322 22.5786 3.91901 21.7699 3.14298 20.3894L2.84074 19.8503H2.26076C1.93401 19.8503 1.37037 19.8258 1.00277 19.7931C0.406455 19.7523 0.324768 19.7604 0.324768 19.8748Z" fill="#EA1D2C"/>
<path d="M96.8937 6.16339C96.8365 6.27775 96.8202 7.2825 96.861 9.46356C96.8937 11.1872 96.8937 12.6575 96.8692 12.7229C96.8283 12.8372 96.7466 12.8127 96.3545 12.5758C95.4315 12.0204 94.9904 11.9223 93.3403 11.9223C91.9516 11.9223 91.8372 11.9305 91.2736 12.1429C90.3832 12.4697 89.8196 12.8291 89.0844 13.5561C88.3492 14.2913 87.9162 14.9775 87.5977 15.9495C87.4343 16.456 87.3853 16.7991 87.3526 17.7303C87.3118 19.1027 87.4588 19.8379 88.0061 20.9488C88.2838 21.5124 88.4799 21.782 89.0844 22.3783C90.2688 23.5628 91.3308 24.0284 92.9809 24.1101C93.716 24.1428 94.0755 24.1264 94.5738 24.0121C95.2436 23.865 96.0768 23.5301 96.4771 23.2442C96.7875 23.0237 96.812 23.0237 96.812 23.3096C96.812 23.4403 96.8447 23.6445 96.8937 23.7588L96.9754 23.9712H98.1108C99.0666 23.9712 99.2545 23.9549 99.2953 23.8405C99.3198 23.767 99.3443 19.7888 99.3443 14.9856C99.3443 7.15997 99.328 6.24508 99.2136 6.13071C99.1156 6.02452 98.8869 6.00001 98.0373 6.00001C97.0652 6.00001 96.9754 6.01635 96.8937 6.16339ZM94.6064 14.471C95.4233 14.6915 96.2484 15.3614 96.665 16.1456C96.8447 16.4723 96.8528 16.5867 96.8528 17.9264V19.3559L96.6159 19.7643C96.0196 20.7691 95.0394 21.4471 93.8958 21.6186C92.3437 21.8637 90.7916 21.0795 90.13 19.7235C89.403 18.2368 89.6889 16.3825 90.808 15.3205C91.8046 14.373 93.1606 14.0707 94.6064 14.471Z" fill="#EA1D2C"/>
<path d="M72.7142 7.27434C71.5706 7.51124 69.9614 8.55684 69.5039 9.34103C69.3651 9.5861 69.3651 9.59426 69.5039 9.59426C69.5856 9.59426 70.2963 9.65145 71.0805 9.7168C72.5672 9.83933 73.9151 9.86383 74.2663 9.76581C74.3888 9.73313 74.5277 9.59426 74.6176 9.41455C74.9035 8.83457 74.3235 8.84274 85.1307 9.25935C89.3295 9.42272 91.2491 9.47173 91.3226 9.41455C91.4697 9.28385 91.4533 8.1729 91.2981 8.0422C91.1756 7.93601 86.8217 7.99319 78.4405 8.20558C75.3936 8.28727 75.3854 8.28727 75.075 8.10755C74.7973 7.95235 74.5114 7.55208 74.5114 7.32336C74.5114 7.11097 73.5801 7.08646 72.7142 7.27434Z" fill="#EA1D2C"/>
<path d="M55.1923 8.00138C53.6157 8.29546 52.2924 9.18585 51.6634 10.3703C51.2059 11.2362 51.0752 11.906 51.0507 13.5153L51.0262 14.9448L50.6178 14.9693C50.3972 14.9857 50.1685 15.0347 50.1113 15.0837C49.9643 15.198 49.9643 17.1177 50.1032 17.2566C50.1603 17.3137 50.3809 17.3546 50.5933 17.3546H50.9854V20.5731C50.9854 23.3913 51.0017 23.8161 51.1161 23.9222C51.2141 24.0284 51.4347 24.0529 52.178 24.0529C52.7008 24.0529 53.1909 24.0121 53.2808 23.9713C53.4278 23.8896 53.436 23.767 53.436 20.6221V17.3546H56.4911C59.2276 17.3546 59.5544 17.3382 59.6524 17.2157C59.7341 17.1259 59.7668 16.8236 59.7668 16.1701C59.7668 15.5166 59.7341 15.2144 59.6524 15.1245C59.5544 15.002 59.2276 14.9857 56.4829 14.9857H53.4197L53.4523 13.5316C53.4768 12.2246 53.4932 12.0449 53.6729 11.6528C53.7791 11.4241 53.9996 11.1137 54.1548 10.9748C54.8574 10.3621 55.5435 10.256 58.9172 10.2478C60.8695 10.2478 61.5966 10.2233 61.6701 10.1498C61.7354 10.0844 61.7681 9.73315 61.7681 9.09599C61.7681 8.32813 61.7436 8.10757 61.6374 8.00955C61.5312 7.89519 61.1473 7.87885 58.6395 7.88702C56.63 7.89519 55.5925 7.92786 55.1923 8.00138Z" fill="#EA1D2C"/>
<path d="M66.0159 11.8815C62.7974 12.2818 60.4693 15.1899 60.7471 18.4492C60.984 21.2184 62.6831 23.3096 65.2399 23.9794C66.0976 24.2081 67.617 24.2245 68.3848 24.0203C71.7585 23.138 73.6864 19.7398 72.796 16.26C72.2813 14.2423 70.6067 12.5595 68.6054 12.0531C67.8784 11.8652 66.7348 11.7917 66.0159 11.8815ZM68.2623 14.5037C69.1445 14.7814 69.9941 15.5983 70.3617 16.5377C70.5822 17.1013 70.6558 18.3348 70.5087 18.8903C70.2555 19.8297 69.5121 20.7936 68.7279 21.2184C66.7429 22.2967 64.1779 21.3981 63.4346 19.3559C62.9036 17.8937 63.2059 16.3988 64.2351 15.3696C65.2481 14.3566 66.7429 14.0299 68.2623 14.5037Z" fill="#EA1D2C"/>
<path d="M79.2901 11.8815C77.1907 12.2164 75.6223 13.3437 74.7074 15.1898C74.2091 16.2028 74.0784 16.8726 74.1275 18.2531C74.152 19.1599 74.201 19.4703 74.3725 20.0094C74.6829 20.957 75.1159 21.6268 75.9001 22.4192C77.109 23.6363 78.3752 24.1428 80.1887 24.1428C81.365 24.151 81.8632 24.0284 82.8843 23.522C84.1342 22.893 85.0736 21.9617 85.6617 20.7446C86.16 19.7072 86.307 18.972 86.258 17.6895C86.2254 16.8154 86.1763 16.554 85.9721 15.9414C85.2778 13.9482 83.693 12.4615 81.7816 12.0122C81.0954 11.8488 79.9109 11.7917 79.2901 11.8815ZM81.4385 14.4547C82.4596 14.7651 83.4398 15.8107 83.7339 16.9298C83.8891 17.5016 83.8564 18.5472 83.6685 19.1517C82.7618 22.0352 78.8408 22.5826 77.109 20.0748C76.6924 19.4621 76.5291 18.8821 76.5291 17.9672C76.5291 17.0523 76.6924 16.4723 77.1172 15.8597C77.6482 15.0837 78.6203 14.471 79.5188 14.3321C80.0334 14.2504 80.9565 14.3158 81.4385 14.4547Z" fill="#EA1D2C"/>
<path d="M76.5944 25.9808C74.6176 26.283 73.5311 26.8875 73.5311 27.6717C73.5311 27.9658 73.5801 28.0474 73.9314 28.3905C74.3398 28.7908 74.8218 28.995 75.8592 29.2074C76.5209 29.3463 78.7755 29.3544 79.2329 29.2156C79.6577 29.0849 79.9027 28.8562 79.9027 28.5948C79.9027 28.3088 80.2703 27.9086 80.5971 27.8432C80.8421 27.8024 88.921 27.8922 96.0442 28.0229L98.9114 28.0801L99.0993 27.8922C99.2545 27.737 99.279 27.6553 99.23 27.2959C99.2055 27.0672 99.1401 26.8303 99.0748 26.7731C98.9686 26.6669 96.6323 26.7078 84.902 27.0345C81.1281 27.1407 80.5154 27.1407 80.3193 27.0427C80.0171 26.8793 79.9354 26.7731 79.8292 26.3647C79.7557 26.0951 79.6822 26.0134 79.478 25.9399C79.1349 25.8174 77.493 25.8419 76.5944 25.9808Z" fill="#EA1D2C"/>
</svg>
